<svg xmlns="http://www.w3.org/2000/svg" width="40" height="35.08" viewBox="0 0 40 35.08">
  <path id="amenities-icon" d="M19.009,5C16.454,5,14.67,6.993,14.67,9.847v18.94a6.95,6.95,0,0,0,2.751.934V9.847a1.978,1.978,0,0,1,2.011-2.1,3.325,3.325,0,0,1,2.4,1.507l1.448-.872S22.038,5,19.009,5ZM37.581,5c-2.555,0-4.339,1.993-4.339,4.847v2.719H18.826l.051,1.26a1.556,1.556,0,0,0,1.556,1.491H33.242v2.751H19.055l.052,1.26a1.556,1.556,0,0,0,1.554,1.491h12.58v2.751H19.283l.052,1.26a1.557,1.557,0,0,0,1.556,1.491h12.35v2.022a7.1,7.1,0,0,0,2.751,1.267V9.847A1.978,1.978,0,0,1,38,7.751a3.325,3.325,0,0,1,2.4,1.507l1.448-.872S40.609,5,37.581,5ZM13.294,30.194l-.74.473a8.651,8.651,0,0,1-4.075,1.159A8.644,8.644,0,0,1,4.4,30.664L2.924,32.3a9.4,9.4,0,0,0,5.555,2.28,11.21,11.21,0,0,0,4.815-1.186,11.21,11.21,0,0,0,4.815,1.186,11.21,11.21,0,0,0,4.815-1.186,11.21,11.21,0,0,0,4.815,1.186,11.21,11.21,0,0,0,4.815-1.186,11.21,11.21,0,0,0,4.815,1.186,9.39,9.39,0,0,0,5.555-2.28l-1.481-1.631a8.651,8.651,0,0,1-4.075,1.159,8.647,8.647,0,0,1-4.075-1.159l-.74-.473-.74.473a8.651,8.651,0,0,1-4.075,1.159,8.647,8.647,0,0,1-4.075-1.159l-.74-.473-.74.473a8.651,8.651,0,0,1-4.075,1.159,8.647,8.647,0,0,1-4.075-1.159Zm0,5.5-.74.473a8.651,8.651,0,0,1-4.075,1.159A8.644,8.644,0,0,1,4.4,36.167L2.924,37.8a9.4,9.4,0,0,0,5.555,2.28,11.21,11.21,0,0,0,4.815-1.186,11.21,11.21,0,0,0,4.815,1.186,11.21,11.21,0,0,0,4.815-1.186,11.21,11.21,0,0,0,4.815,1.186,11.21,11.21,0,0,0,4.815-1.186,11.21,11.21,0,0,0,4.815,1.186,9.39,9.39,0,0,0,5.555-2.28l-1.481-1.631a8.651,8.651,0,0,1-4.075,1.159,8.647,8.647,0,0,1-4.075-1.159l-.74-.473-.74.473a8.651,8.651,0,0,1-4.075,1.159,8.647,8.647,0,0,1-4.075-1.159l-.74-.473-.74.473a8.651,8.651,0,0,1-4.075,1.159,8.647,8.647,0,0,1-4.075-1.159Z" transform="translate(-2.924 -5)" fill="#fff"/>
</svg>
