<svg xmlns="http://www.w3.org/2000/svg" width="19.789" height="23.5" viewBox="0 0 19.789 23.5">
  <path id="copy-icon" d="M14.493,5a3.415,3.415,0,0,0-3.4,3.4V22.007a3.415,3.415,0,0,0,3.4,3.4h9.895a3.415,3.415,0,0,0,3.4-3.4V8.4a3.415,3.415,0,0,0-3.4-3.4Zm0,1.855h9.895A1.532,1.532,0,0,1,25.934,8.4V22.007a1.532,1.532,0,0,1-1.546,1.546H14.493a1.532,1.532,0,0,1-1.546-1.546V8.4A1.532,1.532,0,0,1,14.493,6.855ZM9.855,8.092l-.754.5A2.474,2.474,0,0,0,8,10.653V22.625A5.875,5.875,0,0,0,13.875,28.5h8.262a2.472,2.472,0,0,0,2.058-1.1l.5-.754H13.875a4.02,4.02,0,0,1-4.02-4.02Z" transform="translate(-8 -5)" fill="#fff"/>
</svg>
