<svg xmlns="http://www.w3.org/2000/svg" width="23.478" height="20" viewBox="0 0 23.478 20">
  <path id="heart-rate-icon" d="M22.075,10a7.724,7.724,0,0,0-5.336,2.348A7.724,7.724,0,0,0,11.4,10,6.4,6.4,0,0,0,5,16.4a8.5,8.5,0,0,0,1.31,4.019L9.491,20l.073-.09A2.709,2.709,0,0,1,11.692,18.7h.046a2.622,2.622,0,0,1,2.322,1.539c.077.122.14.222.2.3,2.193-5.753,2.459-5.753,2.917-5.753s.863.465,1.116,2.194c.127.868.283,2.018.437,3.147.079.576.2,1.557.283,2.139.287-.487.911-1.76,1.282-2.525a1.075,1.075,0,0,1,.97-.607H22.3a1.294,1.294,0,0,1,1.2-.414,1.3,1.3,0,0,1-.232,2.588,1.3,1.3,0,0,1-.966-.435h-.7c-2.156,4.386-2.693,4.348-3.112,4.348s-.856-.467-1.08-2.014c-.111-.767-.252-1.8-.394-2.844-.066-.485-.139-1.02-.212-1.547-.39.992-1.465,3.8-1.465,3.8h-.6a2.461,2.461,0,0,1-2.143-1.454c-.368-.589-.477-.737-.867-.72-.318,0-.487.175-.8.562a1.54,1.54,0,0,1-1.185.743H7.207c3.4,4.5,9.532,8.261,9.532,8.261s11.739-7.194,11.739-13.6A6.4,6.4,0,0,0,22.075,10Z" transform="translate(-5 -10)" fill="#e20808"/>
</svg>
