<svg xmlns="http://www.w3.org/2000/svg" width="22.8" height="24" viewBox="0 0 22.8 24">
  <path id="list-icon" d="M6.8,4A1.818,1.818,0,0,0,5,5.8V9.4a1.818,1.818,0,0,0,1.8,1.8h3.6a1.818,1.818,0,0,0,1.8-1.8V5.8A1.818,1.818,0,0,0,10.4,4Zm.6,2.4H9.8V8.8H7.4Zm7.8,0a1.2,1.2,0,1,0,0,2.4H26.6a1.2,1.2,0,1,0,0-2.4Zm-8.4,6A1.818,1.818,0,0,0,5,14.2v3.6a1.818,1.818,0,0,0,1.8,1.8h3.6a1.818,1.818,0,0,0,1.8-1.8V14.2a1.818,1.818,0,0,0-1.8-1.8Zm.6,2.4H9.8v2.4H7.4Zm7.8,0a1.2,1.2,0,1,0,0,2.4H26.6a1.2,1.2,0,1,0,0-2.4Zm-8.4,6A1.818,1.818,0,0,0,5,22.6v3.6A1.818,1.818,0,0,0,6.8,28h3.6a1.818,1.818,0,0,0,1.8-1.8V22.6a1.818,1.818,0,0,0-1.8-1.8Zm.6,2.4H9.8v2.4H7.4Zm7.8,0a1.2,1.2,0,1,0,0,2.4H26.6a1.2,1.2,0,1,0,0-2.4Z" transform="translate(-5 -4)" fill="#192a56"/>
</svg>
