<svg xmlns="http://www.w3.org/2000/svg" width="18" height="24" viewBox="0 0 18 24">
  <path id="lock-icon" d="M12,0A5.458,5.458,0,0,0,6.6,5.538V9.231A3.659,3.659,0,0,0,3,12.923v7.385A3.659,3.659,0,0,0,6.6,24H17.4A3.659,3.659,0,0,0,21,20.308V12.923a3.659,3.659,0,0,0-3.6-3.692V5.538A5.458,5.458,0,0,0,12,0Zm0,1.846a3.57,3.57,0,0,1,3.6,3.692V9.231H8.4V5.538A3.57,3.57,0,0,1,12,1.846Zm0,12a1.827,1.827,0,0,1,1.8,1.846,1.774,1.774,0,0,1-.9,1.558v2.135a.9.9,0,1,1-1.8,0V17.25a1.774,1.774,0,0,1-.9-1.558A1.827,1.827,0,0,1,12,13.846Z" transform="translate(-3)" fill="#fff"/>
</svg>
