<svg xmlns="http://www.w3.org/2000/svg" width="28.75" height="20" viewBox="0 0 28.75 20">
  <path id="org-name-icon" d="M6.125,9A3.126,3.126,0,0,0,3,12.125v13.75A3.126,3.126,0,0,0,6.125,29h22.5a3.126,3.126,0,0,0,3.125-3.125V12.125A3.126,3.126,0,0,0,28.625,9Zm5.625,3.125a.623.623,0,0,1,.245.05L16.37,14.05a.625.625,0,0,1-.245,1.2.613.613,0,0,1-.247-.05L11.75,13.43,7.622,15.2a.626.626,0,0,1-.493-1.15L11.5,12.175A.628.628,0,0,1,11.75,12.125Zm7.5,2.5h8.125a.625.625,0,1,1,0,1.25H19.25a.625.625,0,0,1,0-1.25ZM8.625,15.875h6.25a.624.624,0,0,1,.625.625v8.75a.624.624,0,0,1-.625.625H8.625A.624.624,0,0,1,8,25.25V16.5A.624.624,0,0,1,8.625,15.875Zm.625,1.25v1.25h1.875v-1.25Zm3.125,0v1.25H14.25v-1.25Zm6.875,0H25.5a.625.625,0,1,1,0,1.25H19.25a.625.625,0,0,1,0-1.25Zm-10,2.5v1.25h1.875v-1.25Zm3.125,0v1.25H14.25v-1.25Zm6.875,0h8.125a.625.625,0,1,1,0,1.25H19.25a.625.625,0,0,1,0-1.25Zm-10,2.5v1.25h1.875v-1.25Zm3.125,0v2.5H14.25v-2.5Zm6.875,0H25.5a.625.625,0,1,1,0,1.25H19.25a.625.625,0,0,1,0-1.25Z" transform="translate(-3 -9)" fill="#fff"/>
</svg>
