<svg xmlns="http://www.w3.org/2000/svg" width="24" height="25.136" viewBox="0 0 24 25.136">
  <path id="settings-icon" d="M12.554,2a1.255,1.255,0,0,0-1.232,1.016L10.9,5.171A10.032,10.032,0,0,0,8.08,6.794L6.013,6.082a1.257,1.257,0,0,0-1.5.56L2.62,9.926A1.259,1.259,0,0,0,2.883,11.5L4.54,12.945a9.317,9.317,0,0,0,0,3.245L2.883,17.631A1.259,1.259,0,0,0,2.62,19.21l1.895,3.284a1.258,1.258,0,0,0,1.5.562l2.067-.712a10.037,10.037,0,0,0,2.823,1.62l.42,2.155a1.255,1.255,0,0,0,1.232,1.016h3.795a1.255,1.255,0,0,0,1.232-1.016L18,23.964a10.032,10.032,0,0,0,2.823-1.623l2.067.712a1.256,1.256,0,0,0,1.5-.56l1.895-3.287a1.256,1.256,0,0,0-.263-1.576L24.364,16.19a9.315,9.315,0,0,0,0-3.245L26.021,11.5a1.259,1.259,0,0,0,.263-1.578L24.388,6.642a1.258,1.258,0,0,0-1.5-.562l-2.067.712A10.034,10.034,0,0,0,18,5.171l-.42-2.155A1.255,1.255,0,0,0,16.349,2Zm1.9,7.541a5.027,5.027,0,1,1-5.027,5.027A5.027,5.027,0,0,1,14.452,9.541Z" transform="translate(-2.452 -2)" fill="#fff"/>
</svg>
