<svg xmlns="http://www.w3.org/2000/svg" width="30" height="19.091" viewBox="0 0 30 19.091">
  <path id="staff-icon" d="M16,5a4.091,4.091,0,1,0,4.091,4.091A4.112,4.112,0,0,0,16,5ZM6.455,7.727a2.727,2.727,0,1,0,2.727,2.727A2.727,2.727,0,0,0,6.455,7.727Zm19.091,0a2.727,2.727,0,1,0,2.727,2.727A2.727,2.727,0,0,0,25.545,7.727ZM6.455,15.909C3.475,15.909,1,17.148,1,18.932v2.432H5.091V20.3a5.783,5.783,0,0,1,1.99-4.355C6.873,15.929,6.669,15.909,6.455,15.909Zm9.545,0c-4.816,0-8.182,1.8-8.182,4.387v3.8H24.182V20.3C24.182,17.713,20.816,15.909,16,15.909Zm9.545,0c-.214,0-.419.02-.626.032a5.785,5.785,0,0,1,1.99,4.355v1.068H31V18.932C31,17.148,28.525,15.909,25.545,15.909Z" transform="translate(-1 -5)" fill="#fff"/>
</svg>
