<svg xmlns="http://www.w3.org/2000/svg" width="65" height="65" viewBox="0 0 65 65">
  <g id="user-icon-md" transform="translate(-570 -305)">
    <circle id="Ellipse_4" data-name="Ellipse 4" cx="32.5" cy="32.5" r="32.5" transform="translate(570 305)" fill="#192a56"/>
    <path id="big-person-icon" d="M15.131,0c-3.94,0-7.163,2.547-7.163,7.273a11.3,11.3,0,0,0,3.581,8.258V17.2a1.485,1.485,0,0,1-1.082,1.477C5.814,20.128,2,23.258,2,25.076v2.2c0,2.3,5.848,4.242,13.131,4.242s13.131-1.941,13.131-4.242v-2.2c0-1.7-3.693-4.948-8.468-6.4A1.6,1.6,0,0,1,18.713,17.2V15.531a11.3,11.3,0,0,0,3.581-8.258C22.294,2.547,19.072,0,15.131,0Z" transform="translate(587.697 322.071)" fill="#fff"/>
  </g>
</svg>
