<svg xmlns="http://www.w3.org/2000/svg" width="49" height="49" viewBox="0 0 49 49">
  <g id="user-icon-rounded" transform="translate(-1474 -20)">
    <circle id="Ellipse_3" data-name="Ellipse 3" cx="24.5" cy="24.5" r="24.5" transform="translate(1474 20)" fill="#192a56"/>
    <path id="icons8_customer_2" d="M12,0A5.188,5.188,0,0,0,6.545,5.538a8.606,8.606,0,0,0,2.727,6.288V13.1a1.131,1.131,0,0,1-.824,1.125C4.9,15.328,2,17.712,2,19.1v1.673C2,22.522,6.453,24,12,24s10-1.478,10-3.231V19.1c0-1.291-2.812-3.768-6.449-4.875a1.219,1.219,0,0,1-.824-1.125V11.827a8.606,8.606,0,0,0,2.727-6.288A5.188,5.188,0,0,0,12,0Z" transform="translate(1487 33)" fill="#fff"/>
  </g>
</svg>
