<?xml version="1.0" encoding="utf-8"?>
<!-- Generator: Adobe Illustrator 27.0.0, SVG Export Plug-In . SVG Version: 6.00 Build 0)  -->
<svg version="1.1" id="Layer_1" xmlns="http://www.w3.org/2000/svg" xmlns:xlink="http://www.w3.org/1999/xlink" x="0px" y="0px"
	 viewBox="0 0 64 64" style="enable-background:new 0 0 64 64;" xml:space="preserve">
<style type="text/css">
	.st0{clip-path:url(#SVGID_00000131330082367280534000000000525632931115963284_);}
	.st1{clip-path:url(#SVGID_00000074432815480913981120000009003553332435876269_);fill:#192A56;}
	.st2{clip-path:url(#SVGID_00000074432815480913981120000009003553332435876269_);fill:#273C75;}
</style>
<g id="Artwork_7_00000019645479928472658110000012431915639007021734_">
	<g>
		<defs>
			<rect id="SVGID_1_" x="16" width="33.1" height="64"/>
		</defs>
		<clipPath id="SVGID_00000099645641011043870680000001802714841258337679_">
			<use xlink:href="#SVGID_1_"  style="overflow:visible;"/>
		</clipPath>
		<g style="clip-path:url(#SVGID_00000099645641011043870680000001802714841258337679_);">
			<defs>
				<rect id="SVGID_00000008113827771033721380000001801957446026223025_" x="16" width="33.1" height="64"/>
			</defs>
			<clipPath id="SVGID_00000074410457956231091790000004595653961744460420_">
				<use xlink:href="#SVGID_00000008113827771033721380000001801957446026223025_"  style="overflow:visible;"/>
			</clipPath>
			<path style="clip-path:url(#SVGID_00000074410457956231091790000004595653961744460420_);fill:#192A56;" d="M43.9,50l-19.4,6
				c-2.6,0.8-5.3-0.7-6.1-3.2l-0.8-2.5l28.7-8.8l0.8,2.5C47.9,46.5,46.5,49.2,43.9,50"/>
			<path style="clip-path:url(#SVGID_00000074410457956231091790000004595653961744460420_);fill:#192A56;" d="M21.1,14.3l19.4-6
				c2.6-0.8,5.3,0.7,6.1,3.2l0.8,2.5l-28.7,8.8l-0.8-2.5C17.1,17.8,18.5,15,21.1,14.3"/>
			<path style="clip-path:url(#SVGID_00000074410457956231091790000004595653961744460420_);fill:#273C75;" d="M45.6,61.8l-6.9,2.1
				c-1.4,0.4-2.9-0.4-3.4-1.8l-2.6-8.3l12-3.7l2.6,8.3C47.8,59.8,47,61.3,45.6,61.8"/>
			<path style="clip-path:url(#SVGID_00000074410457956231091790000004595653961744460420_);fill:#273C75;" d="M49,37.5l-5.9-19.1
				c-0.4-1.4-2-2.2-3.4-1.8l-21.8,6.7c-1.4,0.4-2.2,2-1.8,3.4L22,45.8c0.4,1.4,2,2.2,3.4,1.8l21.8-6.7C48.6,40.5,49.5,39,49,37.5
				 M30.7,34.5c0,0.1-0.1,0.2-0.2,0.2c-0.1,0-0.2,0-0.3-0.1c-0.6-0.7-1-1.6-1-2.6c0-1,0.4-1.9,1-2.6c0.1-0.1,0.1-0.1,0.2-0.1
				c0.1,0,0.2,0.1,0.3,0.2c0.1,0.1,0,0.2,0,0.3c-0.5,0.6-0.8,1.4-0.8,2.2c0,0.9,0.3,1.6,0.8,2.2C30.7,34.3,30.7,34.4,30.7,34.5
				 M31.6,33.5c-0.1,0.1-0.3,0.1-0.4,0c-0.4-0.4-0.6-0.9-0.6-1.5c0-0.6,0.2-1.1,0.6-1.5c0.1-0.1,0.1-0.1,0.2-0.1
				c0.1,0,0.2,0.1,0.3,0.2c0.1,0.1,0,0.2,0,0.3c-0.3,0.3-0.4,0.7-0.4,1.1c0,0.4,0.2,0.8,0.4,1.1C31.8,33.2,31.8,33.4,31.6,33.5
				 M32.9,32.7c-0.4,0-0.8-0.3-0.8-0.8s0.3-0.8,0.8-0.8c0.4,0,0.8,0.3,0.8,0.8S33.3,32.7,32.9,32.7 M34.3,33.6
				c-0.1,0-0.2-0.1-0.2-0.2c0-0.1,0-0.2,0.1-0.3c0.3-0.3,0.4-0.7,0.4-1.1c0-0.4-0.2-0.8-0.4-1.1c-0.1-0.1-0.1-0.2-0.1-0.3
				c0-0.1,0.1-0.2,0.2-0.2c0,0,0,0,0,0c0.1,0,0.2,0,0.2,0.1c0.4,0.4,0.6,0.9,0.6,1.5c0,0.6-0.2,1.1-0.6,1.5
				C34.5,33.6,34.4,33.6,34.3,33.6 M35.7,34.6c-0.1,0.1-0.2,0.1-0.3,0.1c-0.1,0-0.2-0.1-0.2-0.2c0-0.1,0-0.2,0.1-0.3
				c0.5-0.6,0.8-1.4,0.8-2.2c0-0.9-0.3-1.6-0.8-2.2c-0.1-0.1-0.1-0.2-0.1-0.3c0-0.1,0.1-0.2,0.2-0.2c0,0,0,0,0,0
				c0.1,0,0.2,0,0.2,0.1c0.6,0.7,1,1.6,1,2.6C36.7,33,36.3,33.9,35.7,34.6"/>
			<path style="clip-path:url(#SVGID_00000074410457956231091790000004595653961744460420_);fill:#273C75;" d="M20.3,2.2l6.9-2.1
				c1.4-0.4,2.9,0.4,3.4,1.8l2.6,8.3l-12,3.7l-2.6-8.3C18,4.2,18.8,2.7,20.3,2.2"/>
		</g>
	</g>
</g>
</svg>
