<?xml version="1.0" encoding="utf-8"?>
<!-- Generator: Adobe Illustrator 27.0.0, SVG Export Plug-In . SVG Version: 6.00 Build 0)  -->
<svg version="1.1" id="Layer_1" xmlns="http://www.w3.org/2000/svg" xmlns:xlink="http://www.w3.org/1999/xlink" x="0px" y="0px"
	 viewBox="0 0 512 512" style="enable-background:new 0 0 512 512;" xml:space="preserve">
<style type="text/css">
	.st0{clip-path:url(#SVGID_00000108991573268432519480000012932457785760240023_);}
	.st1{clip-path:url(#SVGID_00000088819270046043928720000003902436770525238966_);fill:#192A56;}
	.st2{clip-path:url(#SVGID_00000088819270046043928720000003902436770525238966_);fill:#273C75;}
</style>
<g id="Artwork_7_00000026883988976673153960000003077098597359086230_">
	<g>
		<defs>
			<rect id="SVGID_1_" x="125" y="3" width="261.4" height="505"/>
		</defs>
		<clipPath id="SVGID_00000093141702180532242490000016618053260585911940_">
			<use xlink:href="#SVGID_1_"  style="overflow:visible;"/>
		</clipPath>
		<g style="clip-path:url(#SVGID_00000093141702180532242490000016618053260585911940_);">
			<defs>
				<rect id="SVGID_00000142151382324428048270000009507750419659601025_" x="125" y="3" width="261.4" height="505"/>
			</defs>
			<clipPath id="SVGID_00000165955421646569206440000000953021936554361228_">
				<use xlink:href="#SVGID_00000142151382324428048270000009507750419659601025_"  style="overflow:visible;"/>
			</clipPath>
			<path style="clip-path:url(#SVGID_00000165955421646569206440000000953021936554361228_);fill:#192A56;" d="M345.1,397.6
				l-153.3,47.2c-20.2,6.2-41.7-5.1-47.9-25.4l-6-19.3l226.6-69.7l6,19.3C376.7,369.9,365.4,391.4,345.1,397.6"/>
			<path style="clip-path:url(#SVGID_00000165955421646569206440000000953021936554361228_);fill:#192A56;" d="M165.1,115.5
				l153.3-47.2c20.2-6.2,41.7,5.1,47.9,25.4l6,19.3l-226.6,69.7l-6-19.3C133.5,143.2,144.8,121.7,165.1,115.5"/>
			<path style="clip-path:url(#SVGID_00000165955421646569206440000000953021936554361228_);fill:#273C75;" d="M358.7,490.4
				l-54.1,16.6c-11.2,3.5-23.2-2.9-26.6-14.1l-20.2-65.8l94.8-29.2l20.2,65.8C376.3,475,370,487,358.7,490.4"/>
			<path style="clip-path:url(#SVGID_00000165955421646569206440000000953021936554361228_);fill:#273C75;" d="M385.5,299.1L339,148
				c-3.5-11.2-15.4-17.6-26.6-14.1l-172.3,53c-11.2,3.5-17.6,15.4-14.1,26.6l46.5,151.1c3.5,11.2,15.4,17.6,26.6,14.1l172.3-53
				C382.6,322.3,388.9,310.4,385.5,299.1 M240.7,275.3c-0.2,0.9-1,1.5-1.9,1.7c-0.9,0.2-1.8-0.2-2.3-0.9c-4.9-5.5-7.9-12.7-7.9-20.6
				c0-7.9,3-15.1,7.8-20.6c0.4-0.5,1-0.8,1.6-0.8c1-0.1,1.9,0.4,2.3,1.3c0.4,0.9,0.3,1.9-0.4,2.7c-4.1,4.6-6.7,10.7-6.7,17.4
				c0,6.7,2.5,12.8,6.7,17.4C240.7,273.5,240.9,274.5,240.7,275.3 M248.4,267.5c-1,0.9-2.5,0.8-3.4-0.2c-2.8-3.1-4.6-7.4-4.6-11.9
				c0-4.5,1.7-8.6,4.4-11.8c0.4-0.5,1-0.8,1.6-0.8c1-0.1,1.9,0.4,2.3,1.3c0.4,0.9,0.3,1.9-0.4,2.7c-2,2.3-3.2,5.3-3.2,8.6
				c0,3.4,1.3,6.4,3.3,8.7C249.5,265.1,249.4,266.7,248.4,267.5 M258.3,261.4c-3.3,0-5.9-2.7-5.9-5.9s2.7-5.9,5.9-5.9
				c3.3,0,5.9,2.7,5.9,5.9S261.6,261.4,258.3,261.4 M269.4,268.2c-0.9-0.2-1.6-0.8-1.9-1.6c-0.3-0.9,0-1.8,0.6-2.4
				c2-2.3,3.3-5.3,3.3-8.7c0-3.3-1.2-6.3-3.3-8.7c-0.6-0.6-0.8-1.6-0.5-2.4c0.3-0.8,1-1.4,1.9-1.6c0.1,0,0.2,0,0.2,0
				c0.7,0,1.4,0.3,1.9,0.9c2.8,3.1,4.5,7.3,4.5,11.8c0,4.5-1.7,8.6-4.5,11.8C271.1,267.9,270.3,268.3,269.4,268.2 M280.1,276.1
				c-0.5,0.7-1.4,1.1-2.3,0.9c-0.9-0.2-1.6-0.8-1.9-1.7c-0.3-0.9,0-1.8,0.7-2.4c4.1-4.6,6.7-10.7,6.7-17.4c0-6.7-2.5-12.8-6.7-17.4
				c-0.6-0.6-0.8-1.6-0.5-2.4c0.3-0.8,1-1.4,1.9-1.6c0.1,0,0.2,0,0.3,0c0.7,0,1.4,0.3,1.9,0.9c4.9,5.5,7.8,12.7,7.8,20.6
				C288,263.3,285,270.6,280.1,276.1"/>
			<path style="clip-path:url(#SVGID_00000165955421646569206440000000953021936554361228_);fill:#273C75;" d="M158.6,20.6
				l54.1-16.6c11.2-3.5,23.2,2.9,26.6,14.1l20.2,65.8L164.7,113l-20.2-65.8C141,36,147.3,24,158.6,20.6"/>
		</g>
	</g>
</g>
</svg>
