<?xml version="1.0" encoding="utf-8"?>
<!-- Generator: Adobe Illustrator 27.0.0, SVG Export Plug-In . SVG Version: 6.00 Build 0)  -->
<svg version="1.1" id="Layer_1" xmlns="http://www.w3.org/2000/svg" xmlns:xlink="http://www.w3.org/1999/xlink" x="0px" y="0px"
	 viewBox="0 0 192 192" style="enable-background:new 0 0 192 192;" xml:space="preserve">
<style type="text/css">
	.st0{clip-path:url(#SVGID_00000021800228141758774020000017898437848892187277_);}
	.st1{clip-path:url(#SVGID_00000146494363945930617090000014221284552283639955_);fill:#192A56;}
	.st2{clip-path:url(#SVGID_00000146494363945930617090000014221284552283639955_);fill:#273C75;}
</style>
<g id="Artwork_7_00000122695163660738590160000000271221634422375829_">
	<g>
		<defs>
			<rect id="SVGID_1_" x="49" y="1" width="97.8" height="189"/>
		</defs>
		<clipPath id="SVGID_00000090996388359310463520000018075507504281297803_">
			<use xlink:href="#SVGID_1_"  style="overflow:visible;"/>
		</clipPath>
		<g style="clip-path:url(#SVGID_00000090996388359310463520000018075507504281297803_);">
			<defs>
				<rect id="SVGID_00000032609166273688250570000010094457566488186267_" x="49" y="1" width="97.8" height="189"/>
			</defs>
			<clipPath id="SVGID_00000154417757522343606440000012793106714586055846_">
				<use xlink:href="#SVGID_00000032609166273688250570000010094457566488186267_"  style="overflow:visible;"/>
			</clipPath>
			<path style="clip-path:url(#SVGID_00000154417757522343606440000012793106714586055846_);fill:#192A56;" d="M131.4,148.7
				L74,166.3c-7.6,2.3-15.6-1.9-17.9-9.5l-2.2-7.2l84.8-26.1l2.2,7.2C143.2,138.3,139,146.4,131.4,148.7"/>
			<path style="clip-path:url(#SVGID_00000154417757522343606440000012793106714586055846_);fill:#192A56;" d="M64,43.1l57.4-17.6
				c7.6-2.3,15.6,1.9,17.9,9.5l2.2,7.2L56.7,68.3L54.5,61C52.2,53.5,56.4,45.4,64,43.1"/>
			<path style="clip-path:url(#SVGID_00000154417757522343606440000012793106714586055846_);fill:#273C75;" d="M136.5,183.4
				l-20.2,6.2c-4.2,1.3-8.7-1.1-10-5.3l-7.6-24.6l35.5-10.9l7.6,24.6C143.1,177.7,140.7,182.1,136.5,183.4"/>
			<path style="clip-path:url(#SVGID_00000154417757522343606440000012793106714586055846_);fill:#273C75;" d="M146.5,111.8
				l-17.4-56.6c-1.3-4.2-5.8-6.6-10-5.3L54.6,69.8c-4.2,1.3-6.6,5.8-5.3,10l17.4,56.6c1.3,4.2,5.8,6.6,10,5.3l64.5-19.8
				C145.4,120.5,147.8,116,146.5,111.8 M92.3,102.9c-0.1,0.3-0.4,0.6-0.7,0.6c-0.3,0.1-0.7-0.1-0.9-0.3c-1.8-2-2.9-4.7-2.9-7.7
				c0-2.9,1.1-5.7,2.9-7.7c0.2-0.2,0.4-0.3,0.6-0.3c0.4,0,0.7,0.2,0.9,0.5c0.2,0.3,0.1,0.7-0.1,1c-1.5,1.7-2.5,4-2.5,6.5
				c0,2.5,0.9,4.8,2.5,6.5C92.3,102.2,92.4,102.6,92.3,102.9 M95.2,100c-0.4,0.3-0.9,0.3-1.3-0.1c-1.1-1.2-1.7-2.8-1.7-4.5
				c0-1.7,0.6-3.2,1.7-4.4c0.2-0.2,0.4-0.3,0.6-0.3c0.4,0,0.7,0.2,0.9,0.5c0.2,0.3,0.1,0.7-0.1,1c-0.8,0.9-1.2,2-1.2,3.2
				c0,1.3,0.5,2.4,1.2,3.3C95.6,99.1,95.6,99.7,95.2,100 M98.9,97.7c-1.2,0-2.2-1-2.2-2.2c0-1.2,1-2.2,2.2-2.2c1.2,0,2.2,1,2.2,2.2
				C101.1,96.7,100.1,97.7,98.9,97.7 M103,100.2c-0.3-0.1-0.6-0.3-0.7-0.6c-0.1-0.3,0-0.7,0.2-0.9c0.8-0.9,1.2-2,1.2-3.2
				c0-1.3-0.5-2.4-1.2-3.2c-0.2-0.2-0.3-0.6-0.2-0.9c0.1-0.3,0.4-0.5,0.7-0.6c0,0,0.1,0,0.1,0c0.3,0,0.5,0.1,0.7,0.3
				c1,1.2,1.7,2.7,1.7,4.4c0,1.7-0.6,3.2-1.7,4.4C103.7,100.2,103.4,100.3,103,100.2 M107.1,103.2c-0.2,0.3-0.5,0.4-0.9,0.3
				c-0.3-0.1-0.6-0.3-0.7-0.6c-0.1-0.3,0-0.7,0.2-0.9c1.6-1.7,2.5-4,2.5-6.5c0-2.5-0.9-4.8-2.5-6.5c-0.2-0.2-0.3-0.6-0.2-0.9
				c0.1-0.3,0.4-0.5,0.7-0.6c0,0,0.1,0,0.1,0c0.3,0,0.5,0.1,0.7,0.3c1.8,2,2.9,4.7,2.9,7.7C110,98.4,108.9,101.1,107.1,103.2"/>
			<path style="clip-path:url(#SVGID_00000154417757522343606440000012793106714586055846_);fill:#273C75;" d="M61.6,7.6l20.2-6.2
				c4.2-1.3,8.7,1.1,10,5.3l7.6,24.6L63.9,42.2l-7.6-24.6C55,13.3,57.3,8.9,61.6,7.6"/>
		</g>
	</g>
</g>
</svg>
